<svg xmlns="http://www.w3.org/2000/svg" xmlns:xlink="http://www.w3.org/1999/xlink" version="1.1" x="0px" y="0px" viewBox="0 0 512 640" style="enable-background:new 0 0 512 512;" xml:space="preserve"><g><path d="M419.8,433.7v-19.5c0-3.9-3.1-7-7-7H378v-17c13.6-3.8,23.6-16.3,23.6-31.1c0-15.2-10.5-28-24.6-31.4v-23c0-3.9-3.1-7-7-7   h-92.3v-28.2h-14v28.2h-92.3c-3.9,0-7,3.1-7,7v23c-14.1,3.5-24.6,16.2-24.6,31.4c0,15.1,10.3,27.7,24.3,31.3v16.8H99.2   c-3.9,0-7,3.1-7,7v19.5c-14.1,3.5-24.6,16.2-24.6,31.4c0,17.8,14.5,32.4,32.4,32.4s32.4-14.5,32.4-32.4c0-15.7-11.2-28.8-26.1-31.7   v-12.2h129.5v12.2c-14.8,2.9-26.1,16-26.1,31.7c0,17.8,14.5,32.4,32.4,32.4s32.4-14.5,32.4-32.4c0-15.2-10.5-28-24.6-31.4v-19.5   c0-3.9-3.1-7-7-7H178v-16.3c15-2.8,26.4-16,26.4-31.8c0-15.7-11.2-28.8-26.1-31.7v-15.7h85.3v15.9c-14.5,3.2-25.4,16.1-25.4,31.6   c0,17.8,14.5,32.4,32.4,32.4S303,376.9,303,359c0-15.4-10.9-28.4-25.4-31.6v-15.9h85.3v15.7c-14.8,2.9-26.1,16-26.1,31.7   c0,16.1,11.8,29.4,27.1,31.9v16.2h-34.8c-3.9,0-7,3.1-7,7v19.5c-14.1,3.5-24.6,16.2-24.6,31.4c0,17.8,14.5,32.4,32.4,32.4   s32.4-14.5,32.4-32.4c0-15.7-11.2-28.8-26.1-31.7v-12.2h69.5v12.2c-14.8,2.9-26.1,16-26.1,31.7c0,17.8,14.5,32.4,32.4,32.4   s32.4-14.5,32.4-32.4C444.4,449.9,433.9,437.1,419.8,433.7z"/><path d="M249.4,88.4c-1.9-1.6-3.7-3.1-5.2-4.6c-0.3,1.1-0.5,2.2-0.6,3.4c0,0.7,0,3.2-0.1,6.4C246,92.3,248.1,90.5,249.4,88.4z"/><path d="M269.5,50.1c3.1,0,6.2,0.4,9.1,1.1c0.5-1.2,0.8-2.5,0.8-3.8c0-5.3-4.3-9.6-9.6-9.6s-9.6,4.3-9.6,9.6c0,1.3,0.3,2.5,0.7,3.7   C263.7,50.4,266.5,50.1,269.5,50.1z"/><path d="M270.6,260.6c24.1,0,46.6-7,65.6-19V200c0-0.2,0-0.5,0-0.7c0.8-7.8-1.7-15.2-6.9-21c-5.2-5.8-12.4-9-20.2-9h-3.9l-4.3,9.2   c-5.4,11.7-17.2,19.2-30.1,19.2c-13.4,0-25.4-8-30.6-20.4l-3.5-8h-4.8c-7.8,0-15,3.2-20.2,9c-5.2,5.8-7.7,13.2-6.9,21   c0,0.2,0,0.5,0,0.7v41.5C224,253.6,246.5,260.6,270.6,260.6z"/><path d="M269.5,140.9c14.3,0,25.9-11.6,25.9-25.9v-8.6c-14.3-1.5-25.6-5.5-34.3-10.2c-4,5.9-10.3,10.5-17.5,12.6c0,2.2,0,4.3,0,6.2   C243.6,129.3,255.2,140.9,269.5,140.9z"/><path d="M191,231.2v-30.9c-1.1-11.5,2.7-22.9,10.5-31.4c7.8-8.6,19-13.6,30.6-13.6h9.4c2.8,0,5.3,1.6,6.4,4.2l5.4,12.3   c0,0,0,0.1,0.1,0.1c3,7.2,9.9,11.8,17.7,11.8c7.4,0,14.2-4.4,17.4-11.1l6.1-13.2c1.1-2.5,3.6-4.1,6.3-4.1h8.3   c11.6,0,22.8,5,30.6,13.6c7.7,8.5,11.5,20,10.5,31.4v30.9c26.5-22.6,43.4-56.2,43.4-93.7c0-67.8-55.2-123-123-123   s-123,55.2-123,123C147.6,175,164.5,208.6,191,231.2z M229.7,86.1L229.7,86.1c1.3-12.6,8.2-23.3,18.2-29.7c-1.2-2.8-1.8-5.9-1.8-9   c0-13,10.6-23.6,23.6-23.6s23.6,10.6,23.6,23.6c0,3.3-0.7,6.4-1.9,9.4c10.8,7.2,18,19.4,18,33.3V115c0,22-17.9,39.9-39.9,39.9   S229.6,137,229.6,115C229.6,87.2,229.7,86.5,229.7,86.1z"/><path d="M295.4,92.3v-2.2c0-14.3-11.6-25.9-25.9-25.9c-6.9,0-13.2,2.7-17.9,7.1C257.3,77.7,270.7,89.2,295.4,92.3z"/></g></svg>